# xmcd
#
# Track frame offsets:
#	150
#	20542
#	32102
#	41857
#	51565
#	60295
#	69047
#	80197
#	92072
#	103317
#	115607
#	126772
#
# Disc length: 1844
#
# Revision: 0
# Processed by: cddbd v1.5.1PL2 Copyright (c) Steve Scherf et al.
# Submitted via: Broken Cross Disk Manager 3.81.2155
#
DISCID=a207320c
DTITLE=Verschiedene - Das goldene Blasmusikvergnügen
DYEAR=1900
DGENRE=
TTITLE0=Stadtmusikkapelle Eisenerz - Amboss Polka
TTITLE1=Militärmusik Steiermark - Generalsstabs-Marsch
TTITLE2=Zollwachmusik Steiermark - Bruckerlager Marsch
TTITLE3=Zollwachmusik Steiermark - 27er Regimentsmarsch
TTITLE4=Bergkapelle Piberstein - Prinz Eugen Marsch
TTITLE5=Postmusik Klagenfurt - O Du Mein Österreich
TTITLE6=Militärmusik Steiermark - Radetzky Marsch
TTITLE7=Musikkapelle Hitzendorf - Gruss aus dem Liebachtal
TTITLE8=Bürgermusikkapelle Ehrwald - Hoch- und Deutschmeiste Marsch
TTITLE9=Marktkapelle Stainz - Castaldo Marsch
TTITLE10=Bundesmusikkapelle Bad Häring - Tiroler Adler
TTITLE11=Trachtenmusikkapelle Maishofen - Broddenritt
EXTD=
EXTT0=
EXTT1=
EXTT2=
EXTT3=
EXTT4=
EXTT5=
EXTT6=
EXTT7=
EXTT8=
EXTT9=
EXTT10=
EXTT11=
PLAYORDER=
